<svg xmlns="http://www.w3.org/2000/svg" version="1.1" xmlns:xlink="http://www.w3.org/1999/xlink" xmlns:svgjs="http://svgjs.dev/svgjs" width="720" height="500" preserveAspectRatio="none" viewBox="0 0 720 500"><g mask="url(&quot;#SvgjsMask1244&quot;)" fill="none"><rect width="720" height="500" x="0" y="0" fill="rgba(6, 11, 16, 1)"></rect><g mask="url(&quot;#SvgjsMask1245&quot;)"><path d="M357 7L371 21L371 35L371 49M357 105L343 119M357 -7L357 7L357 21L357 35L357 49L357 63L357 77L357 91L357 105L357 119" stroke="rgba(255, 0, 239, 1)" stroke-width="2.33"></path><path d="M353.5 119 a3.5 3.5 0 1 0 7 0 a3.5 3.5 0 1 0 -7 0zM367.5 49 a3.5 3.5 0 1 0 7 0 a3.5 3.5 0 1 0 -7 0zM339.5 119 a3.5 3.5 0 1 0 7 0 a3.5 3.5 0 1 0 -7 0z" fill="rgba(255, 0, 239, 1)"></path><path d="M371 -7L385 7L385 21" stroke="rgba(255, 0, 42, 1)" stroke-width="2.33"></path><path d="M381.5 21 a3.5 3.5 0 1 0 7 0 a3.5 3.5 0 1 0 -7 0z" fill="rgba(255, 0, 42, 1)"></path><path d="M343 -7L343 7" stroke="rgba(255, 0, 239, 1)" stroke-width="2.33"></path><path d="M339.5 7 a3.5 3.5 0 1 0 7 0 a3.5 3.5 0 1 0 -7 0z" fill="rgba(255, 0, 239, 1)"></path><path d="M399 35L385 49M385 -7L399 7L399 21L399 35L399 49L399 63" stroke="rgba(255, 0, 42, 1)" stroke-width="2.33"></path><path d="M395.5 63 a3.5 3.5 0 1 0 7 0 a3.5 3.5 0 1 0 -7 0zM381.5 49 a3.5 3.5 0 1 0 7 0 a3.5 3.5 0 1 0 -7 0z" fill="rgba(255, 0, 42, 1)"></path><path d="M329 21L329 35L329 49L329 63M329 -7L329 7L329 21L343 35L343 49L343 63" stroke="rgba(255, 0, 42, 1)" stroke-width="2.33"></path><path d="M339.5 63 a3.5 3.5 0 1 0 7 0 a3.5 3.5 0 1 0 -7 0zM325.5 63 a3.5 3.5 0 1 0 7 0 a3.5 3.5 0 1 0 -7 0z" fill="rgba(255, 0, 42, 1)"></path><path d="M399 -7L413 7L413 21" stroke="rgba(255, 0, 42, 1)" stroke-width="2.33"></path><path d="M409.5 21 a3.5 3.5 0 1 0 7 0 a3.5 3.5 0 1 0 -7 0z" fill="rgba(255, 0, 42, 1)"></path><path d="M315 49L301 63M315 21L301 35L301 49L287 63L273 77M315 63L315 77M315 -7L315 7L315 21L315 35L315 49L315 63L301 77" stroke="rgba(255, 0, 42, 1)" stroke-width="2.33"></path><path d="M297.5 77 a3.5 3.5 0 1 0 7 0 a3.5 3.5 0 1 0 -7 0zM297.5 63 a3.5 3.5 0 1 0 7 0 a3.5 3.5 0 1 0 -7 0zM269.5 77 a3.5 3.5 0 1 0 7 0 a3.5 3.5 0 1 0 -7 0zM311.5 77 a3.5 3.5 0 1 0 7 0 a3.5 3.5 0 1 0 -7 0z" fill="rgba(255, 0, 42, 1)"></path><path d="M413 -7L427 7" stroke="rgba(255, 0, 42, 1)" stroke-width="2.33"></path><path d="M423.5 7 a3.5 3.5 0 1 0 7 0 a3.5 3.5 0 1 0 -7 0z" fill="rgba(255, 0, 42, 1)"></path><path d="M301 -7L301 7" stroke="rgba(255, 0, 42, 1)" stroke-width="2.33"></path><path d="M297.5 7 a3.5 3.5 0 1 0 7 0 a3.5 3.5 0 1 0 -7 0z" fill="rgba(255, 0, 42, 1)"></path><path d="M441 49L427 63L427 77L427 91M441 35L427 49L413 63L413 77M441 21L427 35M427 -7L441 7L441 21L441 35L441 49L441 63L441 77" stroke="rgba(255, 0, 239, 1)" stroke-width="2.33"></path><path d="M437.5 77 a3.5 3.5 0 1 0 7 0 a3.5 3.5 0 1 0 -7 0zM423.5 91 a3.5 3.5 0 1 0 7 0 a3.5 3.5 0 1 0 -7 0zM409.5 77 a3.5 3.5 0 1 0 7 0 a3.5 3.5 0 1 0 -7 0zM423.5 35 a3.5 3.5 0 1 0 7 0 a3.5 3.5 0 1 0 -7 0z" fill="rgba(255, 0, 239, 1)"></path><path d="M287 7L301 21M287 -7L287 7L273 21" stroke="rgba(255, 0, 42, 1)" stroke-width="2.33"></path><path d="M269.5 21 a3.5 3.5 0 1 0 7 0 a3.5 3.5 0 1 0 -7 0zM297.5 21 a3.5 3.5 0 1 0 7 0 a3.5 3.5 0 1 0 -7 0z" fill="rgba(255, 0, 42, 1)"></path><path d="M441 -7L455 7L455 21L455 35L455 49L455 63" stroke="rgba(255, 0, 239, 1)" stroke-width="2.33"></path><path d="M451.5 63 a3.5 3.5 0 1 0 7 0 a3.5 3.5 0 1 0 -7 0z" fill="rgba(255, 0, 239, 1)"></path><path d="M245 105L231 119M259 35L273 49L273 63M259 77L273 91L273 105L273 119M273 -7L273 7L259 21L259 35L259 49L259 63L259 77L245 91L245 105L245 119" stroke="rgba(255, 0, 42, 1)" stroke-width="2.33"></path><path d="M241.5 119 a3.5 3.5 0 1 0 7 0 a3.5 3.5 0 1 0 -7 0zM227.5 119 a3.5 3.5 0 1 0 7 0 a3.5 3.5 0 1 0 -7 0zM269.5 63 a3.5 3.5 0 1 0 7 0 a3.5 3.5 0 1 0 -7 0zM269.5 119 a3.5 3.5 0 1 0 7 0 a3.5 3.5 0 1 0 -7 0z" fill="rgba(255, 0, 42, 1)"></path><path d="M469 91L483 105L483 119M469 63L483 77M469 77L455 91L455 105M455 -7L469 7L469 21L469 35L469 49L469 63L469 77L469 91L469 105L469 119" stroke="rgba(255, 0, 239, 1)" stroke-width="2.33"></path><path d="M465.5 119 a3.5 3.5 0 1 0 7 0 a3.5 3.5 0 1 0 -7 0zM479.5 119 a3.5 3.5 0 1 0 7 0 a3.5 3.5 0 1 0 -7 0zM479.5 77 a3.5 3.5 0 1 0 7 0 a3.5 3.5 0 1 0 -7 0zM451.5 105 a3.5 3.5 0 1 0 7 0 a3.5 3.5 0 1 0 -7 0z" fill="rgba(255, 0, 239, 1)"></path><path d="M259 -7L259 7L245 21L245 35L245 49L245 63L245 77L231 91" stroke="rgba(255, 0, 239, 1)" stroke-width="2.33"></path><path d="M227.5 91 a3.5 3.5 0 1 0 7 0 a3.5 3.5 0 1 0 -7 0z" fill="rgba(255, 0, 239, 1)"></path><path d="M483 35L497 49M469 -7L483 7L483 21L483 35L483 49" stroke="rgba(255, 0, 239, 1)" stroke-width="2.33"></path><path d="M479.5 49 a3.5 3.5 0 1 0 7 0 a3.5 3.5 0 1 0 -7 0zM493.5 49 a3.5 3.5 0 1 0 7 0 a3.5 3.5 0 1 0 -7 0z" fill="rgba(255, 0, 239, 1)"></path><path d="M245 -7L245 7L231 21L231 35L231 49L231 63L231 77L217 91" stroke="rgba(255, 0, 239, 1)" stroke-width="2.33"></path><path d="M213.5 91 a3.5 3.5 0 1 0 7 0 a3.5 3.5 0 1 0 -7 0z" fill="rgba(255, 0, 239, 1)"></path><path d="M483 -7L497 7L497 21" stroke="rgba(255, 0, 239, 1)" stroke-width="2.33"></path><path d="M493.5 21 a3.5 3.5 0 1 0 7 0 a3.5 3.5 0 1 0 -7 0z" fill="rgba(255, 0, 239, 1)"></path><path d="M217 35L203 49L203 63L189 77L189 91M231 -7L231 7L217 21L217 35L217 49L217 63L203 77" stroke="rgba(255, 0, 239, 1)" stroke-width="2.33"></path><path d="M199.5 77 a3.5 3.5 0 1 0 7 0 a3.5 3.5 0 1 0 -7 0zM185.5 91 a3.5 3.5 0 1 0 7 0 a3.5 3.5 0 1 0 -7 0z" fill="rgba(255, 0, 239, 1)"></path><path d="M511 35L525 49L525 63M511 77L525 91L525 105M511 21L525 35M497 -7L511 7L511 21L511 35L511 49L511 63L511 77L511 91" stroke="rgba(255, 0, 42, 1)" stroke-width="2.33"></path><path d="M507.5 91 a3.5 3.5 0 1 0 7 0 a3.5 3.5 0 1 0 -7 0zM521.5 63 a3.5 3.5 0 1 0 7 0 a3.5 3.5 0 1 0 -7 0zM521.5 105 a3.5 3.5 0 1 0 7 0 a3.5 3.5 0 1 0 -7 0zM521.5 35 a3.5 3.5 0 1 0 7 0 a3.5 3.5 0 1 0 -7 0z" fill="rgba(255, 0, 42, 1)"></path><path d="M217 -7L217 7" stroke="rgba(255, 0, 42, 1)" stroke-width="2.33"></path><path d="M213.5 7 a3.5 3.5 0 1 0 7 0 a3.5 3.5 0 1 0 -7 0z" fill="rgba(255, 0, 42, 1)"></path><path d="M525 7L525 21M511 -7L525 7L539 21L539 35L539 49L539 63L539 77" stroke="rgba(255, 0, 42, 1)" stroke-width="2.33"></path><path d="M535.5 77 a3.5 3.5 0 1 0 7 0 a3.5 3.5 0 1 0 -7 0zM521.5 21 a3.5 3.5 0 1 0 7 0 a3.5 3.5 0 1 0 -7 0z" fill="rgba(255, 0, 42, 1)"></path><path d="M203 -7L203 7L203 21" stroke="rgba(255, 0, 239, 1)" stroke-width="2.33"></path><path d="M199.5 21 a3.5 3.5 0 1 0 7 0 a3.5 3.5 0 1 0 -7 0z" fill="rgba(255, 0, 239, 1)"></path><path d="M553 49L567 63L567 77L581 91L581 105M553 35L567 49L581 63M553 21L567 35L581 49L595 63L595 77M525 -7L539 7L553 21L553 35L553 49L553 63L553 77L553 91" stroke="rgba(255, 0, 42, 1)" stroke-width="2.33"></path><path d="M549.5 91 a3.5 3.5 0 1 0 7 0 a3.5 3.5 0 1 0 -7 0zM577.5 105 a3.5 3.5 0 1 0 7 0 a3.5 3.5 0 1 0 -7 0zM577.5 63 a3.5 3.5 0 1 0 7 0 a3.5 3.5 0 1 0 -7 0zM591.5 77 a3.5 3.5 0 1 0 7 0 a3.5 3.5 0 1 0 -7 0z" fill="rgba(255, 0, 42, 1)"></path><path d="M189 7L175 21L175 35M189 -7L189 7L189 21L189 35" stroke="rgba(255, 0, 42, 1)" stroke-width="2.33"></path><path d="M185.5 35 a3.5 3.5 0 1 0 7 0 a3.5 3.5 0 1 0 -7 0zM171.5 35 a3.5 3.5 0 1 0 7 0 a3.5 3.5 0 1 0 -7 0z" fill="rgba(255, 0, 42, 1)"></path></g></g><defs><mask id="SvgjsMask1244"><rect width="720" height="500" fill="#ffffff"></rect></mask><mask id="SvgjsMask1245"><rect width="720" height="500" fill="white"></rect><path d="M355.25 119 a1.75 1.75 0 1 0 3.5 0 a1.75 1.75 0 1 0 -3.5 0zM369.25 49 a1.75 1.75 0 1 0 3.5 0 a1.75 1.75 0 1 0 -3.5 0zM341.25 119 a1.75 1.75 0 1 0 3.5 0 a1.75 1.75 0 1 0 -3.5 0z" fill="black"></path><path d="M383.25 21 a1.75 1.75 0 1 0 3.5 0 a1.75 1.75 0 1 0 -3.5 0z" fill="black"></path><path d="M341.25 7 a1.75 1.75 0 1 0 3.5 0 a1.75 1.75 0 1 0 -3.5 0z" fill="black"></path><path d="M397.25 63 a1.75 1.75 0 1 0 3.5 0 a1.75 1.75 0 1 0 -3.5 0zM383.25 49 a1.75 1.75 0 1 0 3.5 0 a1.75 1.75 0 1 0 -3.5 0z" fill="black"></path><path d="M341.25 63 a1.75 1.75 0 1 0 3.5 0 a1.75 1.75 0 1 0 -3.5 0zM327.25 63 a1.75 1.75 0 1 0 3.5 0 a1.75 1.75 0 1 0 -3.5 0z" fill="black"></path><path d="M411.25 21 a1.75 1.75 0 1 0 3.5 0 a1.75 1.75 0 1 0 -3.5 0z" fill="black"></path><path d="M299.25 77 a1.75 1.75 0 1 0 3.5 0 a1.75 1.75 0 1 0 -3.5 0zM299.25 63 a1.75 1.75 0 1 0 3.5 0 a1.75 1.75 0 1 0 -3.5 0zM271.25 77 a1.75 1.75 0 1 0 3.5 0 a1.75 1.75 0 1 0 -3.5 0zM313.25 77 a1.75 1.75 0 1 0 3.5 0 a1.75 1.75 0 1 0 -3.5 0z" fill="black"></path><path d="M425.25 7 a1.75 1.75 0 1 0 3.5 0 a1.75 1.75 0 1 0 -3.5 0z" fill="black"></path><path d="M299.25 7 a1.75 1.75 0 1 0 3.5 0 a1.75 1.75 0 1 0 -3.5 0z" fill="black"></path><path d="M439.25 77 a1.75 1.75 0 1 0 3.5 0 a1.75 1.75 0 1 0 -3.5 0zM425.25 91 a1.75 1.75 0 1 0 3.5 0 a1.75 1.75 0 1 0 -3.5 0zM411.25 77 a1.75 1.75 0 1 0 3.5 0 a1.75 1.75 0 1 0 -3.5 0zM425.25 35 a1.75 1.75 0 1 0 3.5 0 a1.75 1.75 0 1 0 -3.5 0z" fill="black"></path><path d="M271.25 21 a1.75 1.75 0 1 0 3.5 0 a1.75 1.75 0 1 0 -3.5 0zM299.25 21 a1.75 1.75 0 1 0 3.5 0 a1.75 1.75 0 1 0 -3.5 0z" fill="black"></path><path d="M453.25 63 a1.75 1.75 0 1 0 3.5 0 a1.75 1.75 0 1 0 -3.5 0z" fill="black"></path><path d="M243.25 119 a1.75 1.75 0 1 0 3.5 0 a1.75 1.75 0 1 0 -3.5 0zM229.25 119 a1.75 1.75 0 1 0 3.5 0 a1.75 1.75 0 1 0 -3.5 0zM271.25 63 a1.75 1.75 0 1 0 3.5 0 a1.75 1.75 0 1 0 -3.5 0zM271.25 119 a1.75 1.75 0 1 0 3.5 0 a1.75 1.75 0 1 0 -3.5 0z" fill="black"></path><path d="M467.25 119 a1.75 1.75 0 1 0 3.5 0 a1.75 1.75 0 1 0 -3.5 0zM481.25 119 a1.75 1.75 0 1 0 3.5 0 a1.75 1.75 0 1 0 -3.5 0zM481.25 77 a1.75 1.75 0 1 0 3.5 0 a1.75 1.75 0 1 0 -3.5 0zM453.25 105 a1.75 1.75 0 1 0 3.5 0 a1.75 1.75 0 1 0 -3.5 0z" fill="black"></path><path d="M229.25 91 a1.75 1.75 0 1 0 3.5 0 a1.75 1.75 0 1 0 -3.5 0z" fill="black"></path><path d="M481.25 49 a1.75 1.75 0 1 0 3.5 0 a1.75 1.75 0 1 0 -3.5 0zM495.25 49 a1.75 1.75 0 1 0 3.5 0 a1.75 1.75 0 1 0 -3.5 0z" fill="black"></path><path d="M215.25 91 a1.75 1.75 0 1 0 3.5 0 a1.75 1.75 0 1 0 -3.5 0z" fill="black"></path><path d="M495.25 21 a1.75 1.75 0 1 0 3.5 0 a1.75 1.75 0 1 0 -3.5 0z" fill="black"></path><path d="M201.25 77 a1.75 1.75 0 1 0 3.5 0 a1.75 1.75 0 1 0 -3.5 0zM187.25 91 a1.75 1.75 0 1 0 3.5 0 a1.75 1.75 0 1 0 -3.5 0z" fill="black"></path><path d="M509.25 91 a1.75 1.75 0 1 0 3.5 0 a1.75 1.75 0 1 0 -3.5 0zM523.25 63 a1.75 1.75 0 1 0 3.5 0 a1.75 1.75 0 1 0 -3.5 0zM523.25 105 a1.75 1.75 0 1 0 3.5 0 a1.75 1.75 0 1 0 -3.5 0zM523.25 35 a1.75 1.75 0 1 0 3.5 0 a1.75 1.75 0 1 0 -3.5 0z" fill="black"></path><path d="M215.25 7 a1.75 1.75 0 1 0 3.5 0 a1.75 1.75 0 1 0 -3.5 0z" fill="black"></path><path d="M537.25 77 a1.75 1.75 0 1 0 3.5 0 a1.75 1.75 0 1 0 -3.5 0zM523.25 21 a1.75 1.75 0 1 0 3.5 0 a1.75 1.75 0 1 0 -3.5 0z" fill="black"></path><path d="M201.25 21 a1.75 1.75 0 1 0 3.5 0 a1.75 1.75 0 1 0 -3.5 0z" fill="black"></path><path d="M551.25 91 a1.75 1.75 0 1 0 3.5 0 a1.75 1.75 0 1 0 -3.5 0zM579.25 105 a1.75 1.75 0 1 0 3.5 0 a1.75 1.75 0 1 0 -3.5 0zM579.25 63 a1.75 1.75 0 1 0 3.5 0 a1.75 1.75 0 1 0 -3.5 0zM593.25 77 a1.75 1.75 0 1 0 3.5 0 a1.75 1.75 0 1 0 -3.5 0z" fill="black"></path><path d="M187.25 35 a1.75 1.75 0 1 0 3.5 0 a1.75 1.75 0 1 0 -3.5 0zM173.25 35 a1.75 1.75 0 1 0 3.5 0 a1.75 1.75 0 1 0 -3.5 0z" fill="black"></path></mask></defs></svg>