<svg xmlns="http://www.w3.org/2000/svg" version="1.1" xmlns:xlink="http://www.w3.org/1999/xlink" xmlns:svgjs="http://svgjs.dev/svgjs" width="1920" height="1080" preserveAspectRatio="none" viewBox="0 0 1920 1080"><g mask="url(&quot;#SvgjsMask1336&quot;)" fill="none"><rect width="1920" height="1080" x="0" y="0" fill="rgba(6, 11, 16, 1)"></rect><g mask="url(&quot;#SvgjsMask1337&quot;)"><path d="M1955 529L1909 529" stroke="rgba(255, 0, 13, 1)" stroke-width="7.67"></path><path d="M1897.5 529 a11.5 11.5 0 1 0 23 0 a11.5 11.5 0 1 0 -23 0z" fill="rgba(255, 0, 13, 1)"></path><path d="M1541 575L1495 529M1357 529L1311 483M1863 575L1817 529L1771 529L1725 529M1955 575L1909 575L1863 575L1817 575L1771 575L1725 575L1679 575L1633 575L1587 575L1541 575L1495 575L1449 575L1403 529L1357 529L1311 529" stroke="rgba(255, 0, 13, 1)" stroke-width="7.67"></path><path d="M1299.5 529 a11.5 11.5 0 1 0 23 0 a11.5 11.5 0 1 0 -23 0zM1483.5 529 a11.5 11.5 0 1 0 23 0 a11.5 11.5 0 1 0 -23 0zM1299.5 483 a11.5 11.5 0 1 0 23 0 a11.5 11.5 0 1 0 -23 0zM1713.5 529 a11.5 11.5 0 1 0 23 0 a11.5 11.5 0 1 0 -23 0z" fill="rgba(255, 0, 13, 1)"></path><path d="M1679 483L1633 529L1587 529L1541 529M1955 483L1909 483L1863 483L1817 483L1771 483L1725 483L1679 483L1633 483L1587 483L1541 483L1495 483L1449 529" stroke="rgba(255, 0, 13, 1)" stroke-width="7.67"></path><path d="M1437.5 529 a11.5 11.5 0 1 0 23 0 a11.5 11.5 0 1 0 -23 0zM1529.5 529 a11.5 11.5 0 1 0 23 0 a11.5 11.5 0 1 0 -23 0z" fill="rgba(255, 0, 13, 1)"></path><path d="M1955 621L1909 621L1863 621L1817 621L1771 621" stroke="rgba(255, 0, 13, 1)" stroke-width="7.67"></path><path d="M1759.5 621 a11.5 11.5 0 1 0 23 0 a11.5 11.5 0 1 0 -23 0z" fill="rgba(255, 0, 13, 1)"></path><path d="M1541 437L1495 391M1587 437L1541 391M1679 437L1633 391L1587 391M1955 437L1909 437L1863 437L1817 437L1771 437L1725 437L1679 437L1633 437L1587 437L1541 437L1495 437L1449 483" stroke="rgba(0, 113, 255, 1)" stroke-width="7.67"></path><path d="M1437.5 483 a11.5 11.5 0 1 0 23 0 a11.5 11.5 0 1 0 -23 0zM1483.5 391 a11.5 11.5 0 1 0 23 0 a11.5 11.5 0 1 0 -23 0zM1529.5 391 a11.5 11.5 0 1 0 23 0 a11.5 11.5 0 1 0 -23 0zM1575.5 391 a11.5 11.5 0 1 0 23 0 a11.5 11.5 0 1 0 -23 0z" fill="rgba(0, 113, 255, 1)"></path><path d="M1311 621L1265 575L1219 575L1173 575L1127 575L1081 575L1035 529M1587 621L1541 667L1495 667L1449 667L1403 667M1173 621L1127 667L1081 667L1035 667M1357 621L1311 575M1955 667L1909 667L1863 667L1817 667L1771 667L1725 667L1679 667L1633 621L1587 621L1541 621L1495 621L1449 621L1403 621L1357 621L1311 621L1265 621L1219 621L1173 621L1127 621" stroke="rgba(0, 113, 255, 1)" stroke-width="7.67"></path><path d="M1115.5 621 a11.5 11.5 0 1 0 23 0 a11.5 11.5 0 1 0 -23 0zM1023.5 529 a11.5 11.5 0 1 0 23 0 a11.5 11.5 0 1 0 -23 0zM1391.5 667 a11.5 11.5 0 1 0 23 0 a11.5 11.5 0 1 0 -23 0zM1023.5 667 a11.5 11.5 0 1 0 23 0 a11.5 11.5 0 1 0 -23 0zM1299.5 575 a11.5 11.5 0 1 0 23 0 a11.5 11.5 0 1 0 -23 0z" fill="rgba(0, 113, 255, 1)"></path><path d="M1955 391L1909 391L1863 391L1817 391L1771 391" stroke="rgba(0, 113, 255, 1)" stroke-width="7.67"></path><path d="M1759.5 391 a11.5 11.5 0 1 0 23 0 a11.5 11.5 0 1 0 -23 0z" fill="rgba(0, 113, 255, 1)"></path><path d="M1265 759L1219 713L1173 713L1127 713M1771 713L1725 713L1679 713L1633 713L1587 713M1127 759L1081 805L1035 805M1541 759L1495 713L1449 713M1311 759L1265 805M1955 713L1909 713L1863 713L1817 713L1771 713L1725 759L1679 759L1633 759L1587 759L1541 759L1495 759L1449 759L1403 759L1357 759L1311 759L1265 759L1219 759L1173 759L1127 759L1081 759" stroke="rgba(255, 0, 13, 1)" stroke-width="7.67"></path><path d="M1069.5 759 a11.5 11.5 0 1 0 23 0 a11.5 11.5 0 1 0 -23 0zM1115.5 713 a11.5 11.5 0 1 0 23 0 a11.5 11.5 0 1 0 -23 0zM1575.5 713 a11.5 11.5 0 1 0 23 0 a11.5 11.5 0 1 0 -23 0zM1023.5 805 a11.5 11.5 0 1 0 23 0 a11.5 11.5 0 1 0 -23 0zM1437.5 713 a11.5 11.5 0 1 0 23 0 a11.5 11.5 0 1 0 -23 0zM1253.5 805 a11.5 11.5 0 1 0 23 0 a11.5 11.5 0 1 0 -23 0z" fill="rgba(255, 0, 13, 1)"></path><path d="M1633 345L1587 299L1541 299M1725 345L1679 391M1679 345L1633 299M1403 391L1357 437L1311 437L1265 437L1219 437M1955 345L1909 345L1863 345L1817 345L1771 345L1725 345L1679 345L1633 345L1587 345L1541 345L1495 345L1449 391L1403 391L1357 391L1311 391L1265 391L1219 391L1173 391L1127 391" stroke="rgba(255, 0, 13, 1)" stroke-width="7.67"></path><path d="M1115.5 391 a11.5 11.5 0 1 0 23 0 a11.5 11.5 0 1 0 -23 0zM1529.5 299 a11.5 11.5 0 1 0 23 0 a11.5 11.5 0 1 0 -23 0zM1667.5 391 a11.5 11.5 0 1 0 23 0 a11.5 11.5 0 1 0 -23 0zM1621.5 299 a11.5 11.5 0 1 0 23 0 a11.5 11.5 0 1 0 -23 0zM1207.5 437 a11.5 11.5 0 1 0 23 0 a11.5 11.5 0 1 0 -23 0z" fill="rgba(255, 0, 13, 1)"></path><path d="M1495 897L1449 851L1403 805M1173 897L1127 897L1081 897L1035 897M1725 805L1679 851L1633 851L1587 897L1541 897M1219 897L1173 851L1127 805M1955 759L1909 759L1863 759L1817 759L1771 759L1725 805L1679 805L1633 805L1587 851L1541 851L1495 897L1449 897L1403 851L1357 851L1311 897L1265 897L1219 897L1173 897L1127 851" stroke="rgba(255, 0, 13, 1)" stroke-width="7.67"></path><path d="M1115.5 851 a11.5 11.5 0 1 0 23 0 a11.5 11.5 0 1 0 -23 0zM1391.5 805 a11.5 11.5 0 1 0 23 0 a11.5 11.5 0 1 0 -23 0zM1023.5 897 a11.5 11.5 0 1 0 23 0 a11.5 11.5 0 1 0 -23 0zM1529.5 897 a11.5 11.5 0 1 0 23 0 a11.5 11.5 0 1 0 -23 0zM1115.5 805 a11.5 11.5 0 1 0 23 0 a11.5 11.5 0 1 0 -23 0z" fill="rgba(255, 0, 13, 1)"></path><path d="M1817 253L1771 207M1679 253L1633 207L1587 207L1541 207M1495 299L1449 253L1403 253L1357 253M1955 299L1909 299L1863 299L1817 253L1771 253L1725 253L1679 253L1633 253L1587 253L1541 253L1495 299L1449 299" stroke="rgba(255, 0, 13, 1)" stroke-width="7.67"></path><path d="M1437.5 299 a11.5 11.5 0 1 0 23 0 a11.5 11.5 0 1 0 -23 0zM1759.5 207 a11.5 11.5 0 1 0 23 0 a11.5 11.5 0 1 0 -23 0zM1529.5 207 a11.5 11.5 0 1 0 23 0 a11.5 11.5 0 1 0 -23 0zM1345.5 253 a11.5 11.5 0 1 0 23 0 a11.5 11.5 0 1 0 -23 0z" fill="rgba(255, 0, 13, 1)"></path></g></g><defs><mask id="SvgjsMask1336"><rect width="1920" height="1080" fill="#ffffff"></rect></mask><mask id="SvgjsMask1337"><rect width="1920" height="1080" fill="white"></rect><path d="M1903.25 529 a5.75 5.75 0 1 0 11.5 0 a5.75 5.75 0 1 0 -11.5 0z" fill="black"></path><path d="M1305.25 529 a5.75 5.75 0 1 0 11.5 0 a5.75 5.75 0 1 0 -11.5 0zM1489.25 529 a5.75 5.75 0 1 0 11.5 0 a5.75 5.75 0 1 0 -11.5 0zM1305.25 483 a5.75 5.75 0 1 0 11.5 0 a5.75 5.75 0 1 0 -11.5 0zM1719.25 529 a5.75 5.75 0 1 0 11.5 0 a5.75 5.75 0 1 0 -11.5 0z" fill="black"></path><path d="M1443.25 529 a5.75 5.75 0 1 0 11.5 0 a5.75 5.75 0 1 0 -11.5 0zM1535.25 529 a5.75 5.75 0 1 0 11.5 0 a5.75 5.75 0 1 0 -11.5 0z" fill="black"></path><path d="M1765.25 621 a5.75 5.75 0 1 0 11.5 0 a5.75 5.75 0 1 0 -11.5 0z" fill="black"></path><path d="M1443.25 483 a5.75 5.75 0 1 0 11.5 0 a5.75 5.75 0 1 0 -11.5 0zM1489.25 391 a5.75 5.75 0 1 0 11.5 0 a5.75 5.75 0 1 0 -11.5 0zM1535.25 391 a5.75 5.75 0 1 0 11.5 0 a5.75 5.75 0 1 0 -11.5 0zM1581.25 391 a5.75 5.75 0 1 0 11.5 0 a5.75 5.75 0 1 0 -11.5 0z" fill="black"></path><path d="M1121.25 621 a5.75 5.75 0 1 0 11.5 0 a5.75 5.75 0 1 0 -11.5 0zM1029.25 529 a5.75 5.75 0 1 0 11.5 0 a5.75 5.75 0 1 0 -11.5 0zM1397.25 667 a5.75 5.75 0 1 0 11.5 0 a5.75 5.75 0 1 0 -11.5 0zM1029.25 667 a5.75 5.75 0 1 0 11.5 0 a5.75 5.75 0 1 0 -11.5 0zM1305.25 575 a5.75 5.75 0 1 0 11.5 0 a5.75 5.75 0 1 0 -11.5 0z" fill="black"></path><path d="M1765.25 391 a5.75 5.75 0 1 0 11.5 0 a5.75 5.75 0 1 0 -11.5 0z" fill="black"></path><path d="M1075.25 759 a5.75 5.75 0 1 0 11.5 0 a5.75 5.75 0 1 0 -11.5 0zM1121.25 713 a5.75 5.75 0 1 0 11.5 0 a5.75 5.75 0 1 0 -11.5 0zM1581.25 713 a5.75 5.75 0 1 0 11.5 0 a5.75 5.75 0 1 0 -11.5 0zM1029.25 805 a5.75 5.75 0 1 0 11.5 0 a5.75 5.75 0 1 0 -11.5 0zM1443.25 713 a5.75 5.75 0 1 0 11.5 0 a5.75 5.75 0 1 0 -11.5 0zM1259.25 805 a5.75 5.75 0 1 0 11.5 0 a5.75 5.75 0 1 0 -11.5 0z" fill="black"></path><path d="M1121.25 391 a5.75 5.75 0 1 0 11.5 0 a5.75 5.75 0 1 0 -11.5 0zM1535.25 299 a5.75 5.75 0 1 0 11.5 0 a5.75 5.75 0 1 0 -11.5 0zM1673.25 391 a5.75 5.75 0 1 0 11.5 0 a5.75 5.75 0 1 0 -11.5 0zM1627.25 299 a5.75 5.75 0 1 0 11.5 0 a5.75 5.75 0 1 0 -11.5 0zM1213.25 437 a5.75 5.75 0 1 0 11.5 0 a5.75 5.75 0 1 0 -11.5 0z" fill="black"></path><path d="M1121.25 851 a5.75 5.75 0 1 0 11.5 0 a5.75 5.75 0 1 0 -11.5 0zM1397.25 805 a5.75 5.75 0 1 0 11.5 0 a5.75 5.75 0 1 0 -11.5 0zM1029.25 897 a5.75 5.75 0 1 0 11.5 0 a5.75 5.75 0 1 0 -11.5 0zM1535.25 897 a5.75 5.75 0 1 0 11.5 0 a5.75 5.75 0 1 0 -11.5 0zM1121.25 805 a5.75 5.75 0 1 0 11.5 0 a5.75 5.75 0 1 0 -11.5 0z" fill="black"></path><path d="M1443.25 299 a5.75 5.75 0 1 0 11.5 0 a5.75 5.75 0 1 0 -11.5 0zM1765.25 207 a5.75 5.75 0 1 0 11.5 0 a5.75 5.75 0 1 0 -11.5 0zM1535.25 207 a5.75 5.75 0 1 0 11.5 0 a5.75 5.75 0 1 0 -11.5 0zM1351.25 253 a5.75 5.75 0 1 0 11.5 0 a5.75 5.75 0 1 0 -11.5 0z" fill="black"></path></mask></defs></svg>